<?xml version="1.0" standalone="no"?>
<!DOCTYPE svg PUBLIC "-//W3C//DTD SVG 20010904//EN"
 "http://www.w3.org/TR/2001/REC-SVG-20010904/DTD/svg10.dtd">
<svg version="1.0" xmlns="http://www.w3.org/2000/svg"
 width="260.000000pt" height="260.000000pt" viewBox="0 0 260.000000 260.000000"
 preserveAspectRatio="xMidYMid meet">
<metadata>
Created by potrace 1.14, written by Peter Selinger 2001-2017
</metadata>
<g transform="translate(0.000000,260.000000) scale(0.100000,-0.100000)"
fill="#000000" stroke="none">
<path d="M0 1300 l0 -1300 1300 0 1300 0 0 1300 0 1300 -1300 0 -1300 0 0
-1300z m1218 905 c3 -19 -5 -22 -85 -32 -76 -9 -90 -14 -111 -38 -19 -23 -22
-35 -17 -64 6 -37 446 -1071 455 -1071 9 0 382 840 413 929 56 160 17 222
-155 246 -42 6 -48 10 -48 31 l0 24 288 -2 287 -3 3 -23 c2 -14 -3 -24 -15
-28 -108 -34 -167 -96 -249 -259 -34 -66 -200 -429 -369 -807 -270 -601 -312
-688 -331 -688 -19 0 -59 87 -334 728 -172 400 -340 782 -372 850 -65 133 -87
156 -161 169 -40 6 -54 22 -43 48 5 13 58 15 423 13 413 -3 418 -3 421 -23z"/>
</g>
</svg>
